<svg width="44" height="44" viewBox="0 0 44 30" fill="none" xmlns="http://www.w3.org/2000/svg">
<g clip-path="url(#clip0_252_733)">
<path fill-rule="evenodd" clip-rule="evenodd" d="M0 0V30H44V0H0Z" fill="#2E42A5"/>
<mask id="mask0_252_733" style="mask-type:luminance" maskUnits="userSpaceOnUse" x="0" y="0" width="44" height="30">
<path fill-rule="evenodd" clip-rule="evenodd" d="M0 0V30H44V0H0Z" fill="white"/>
</mask>
<g mask="url(#mask0_252_733)">
<path d="M-4.89844 27.8562L4.78431 31.58L44.2193 4.04749L49.3274 -1.48501L38.9737 -2.72876L22.8889 9.13499L9.94194 17.13L-4.89844 27.8562Z" fill="white"/>
<path d="M-3.57422 30.465L1.36066 32.625L47.4933 -1.99878H40.5674L-3.57422 30.465Z" fill="#F50100"/>
<path d="M48.8997 27.8562L39.217 31.58L-0.218047 4.04749L-5.32617 -1.48501L5.02758 -2.72876L21.1123 9.13499L34.0593 17.13L48.8997 27.8562Z" fill="white"/>
<path d="M48.5698 29.7288L43.6363 31.8888L23.993 17.0638L18.1685 15.4088L-5.81836 -1.46625H1.10889L25.0806 15.0088L31.4483 16.9938L48.5698 29.7288Z" fill="#F50100"/>
<path fill-rule="evenodd" clip-rule="evenodd" d="M27.1953 -2.5H16.8058V10H-2.71094V20H16.8058V32.5H27.1953V20H46.7891V10H27.1953V-2.5Z" fill="#F50100"/>
<mask id="mask1_252_733" style="mask-type:luminance" maskUnits="userSpaceOnUse" x="-3" y="-3" width="50" height="36">
<path fill-rule="evenodd" clip-rule="evenodd" d="M27.1953 -2.5H16.8058V10H-2.71094V20H16.8058V32.5H27.1953V20H46.7891V10H27.1953V-2.5Z" fill="white"/>
</mask>
<g mask="url(#mask1_252_733)">
<path d="M16.8058 -2.5V-5H14.0558V-2.5H16.8058ZM27.1953 -2.5H29.9453V-5H27.1953V-2.5ZM16.8058 10V12.5H19.5558V10H16.8058ZM-2.71094 10V7.5H-5.46094V10H-2.71094ZM-2.71094 20H-5.46094V22.5H-2.71094V20ZM16.8058 20H19.5558V17.5H16.8058V20ZM16.8058 32.5H14.0558V35H16.8058V32.5ZM27.1953 32.5V35H29.9453V32.5H27.1953ZM27.1953 20V17.5H24.4453V20H27.1953ZM46.7891 20V22.5H49.5391V20H46.7891ZM46.7891 10H49.5391V7.5H46.7891V10ZM27.1953 10H24.4453V12.5H27.1953V10ZM16.8058 4.76837e-07H27.1953V-5H16.8058V4.76837e-07ZM19.5558 10V-2.5H14.0558V10H19.5558ZM-2.71094 12.5H16.8058V7.5H-2.71094V12.5ZM0.0390625 20V10H-5.46094V20H0.0390625ZM16.8058 17.5H-2.71094V22.5H16.8058V17.5ZM19.5558 32.5V20H14.0558V32.5H19.5558ZM27.1953 30H16.8058V35H27.1953V30ZM24.4453 20V32.5H29.9453V20H24.4453ZM46.7891 17.5H27.1953V22.5H46.7891V17.5ZM44.0391 10V20H49.5391V10H44.0391ZM27.1953 12.5H46.7891V7.5H27.1953V12.5ZM24.4453 -2.5V10H29.9453V-2.5H24.4453Z" fill="white"/>
</g>
</g>
</g>
<defs>
<clipPath id="clip0_252_733">
<rect width="44" height="30" rx="6" fill="white"/>
</clipPath>
</defs>
</svg>
